<?xml version="1.0" encoding="UTF-8" standalone="no"?>
<svg
   version="1.1"
   width="1024"
   height="1024"
   id="svg82"
   xmlns="http://www.w3.org/2000/svg"
   xmlns:svg="http://www.w3.org/2000/svg">
  <defs
     id="defs82" />
  <path
     d="M0 0 C337.92 0 675.84 0 1024 0 C1024 337.92 1024 675.84 1024 1024 C686.08 1024 348.16 1024 0 1024 C0 686.08 0 348.16 0 0 Z "
     fill="#348ECA"
     transform="translate(0,0)"
     id="path1" />
  <path
     d="M0 0 C2.14435698 2.14435698 2.50710068 3.13255056 3.33422852 5.97241211 C3.58015244 6.80503571 3.82607635 7.6376593 4.07945251 8.49551392 C4.34327225 9.41351776 4.60709198 10.33152161 4.87890625 11.27734375 C5.30502953 12.73217667 5.30502953 12.73217667 5.73976135 14.21640015 C6.3598516 16.33746235 6.97683127 18.45943576 7.59112549 20.58218384 C8.57015145 23.9639296 9.55833442 27.34288914 10.54833984 30.72143555 C14.10362893 42.88205372 17.59147597 55.06021171 21.02098656 67.25675011 C22.15990756 71.30142062 23.30620829 75.34400857 24.45226383 79.38666248 C25.38135424 82.66791538 26.30382298 85.95077462 27.21243286 89.23776245 C28.2350284 92.92933851 29.27589951 96.61532849 30.3203125 100.30078125 C30.76800743 101.94752335 30.76800743 101.94752335 31.2247467 103.62753296 C32.92057462 109.53748171 34.4978726 113.72910644 39 118 C42.88348484 119.29449495 45.90697336 119.13203312 50 119 C50.33 118.67 50.66 118.34 51 118 C57.72485033 117.25279441 63.9194154 119.15892913 70 122 C72.11419433 123.85821565 73.37286735 125.66099681 75 128 C78.62396343 130.26687252 81.36316453 130.44001062 85.5234375 129.84375 C90.71284538 128.07574984 94.19793447 123.79131004 98 120 C100.2957804 117.85668694 102.6182154 115.74281857 104.9375 113.625 C108.93208045 109.97554136 108.93208045 109.97554136 112.75390625 106.1484375 C114 105 114 105 116 105 C116.2475 104.41347656 116.495 103.82695312 116.75 103.22265625 C118.18382496 100.67313625 119.74692804 99.28882935 122 97.4375 C124.55772463 95.32643684 126.133135 93.80029749 128 91 C128.66 91 129.32 91 130 91 C130.3403125 90.1646875 130.3403125 90.1646875 130.6875 89.3125 C132.37122842 86.34593088 134.55984596 84.38708386 137 82 C138.39121646 80.60071312 139.78240953 79.20140276 141.17292786 77.80142212 C143.31967149 75.64109936 145.46925345 73.48360912 147.61889648 71.32617188 C148.74350194 70.1965408 149.86720782 69.0660134 150.98999023 67.93457031 C166.42721037 52.38185976 166.42721037 52.38185976 173 48 C170.68883734 59.08445776 167.98897104 70.04580893 165.125 81 C161.78330045 93.79745587 158.70610592 106.63932647 155.78710938 119.54003906 C154.43147309 125.49912017 153.0476109 131.45161364 151.66091919 137.40353394 C151.19631093 139.39964531 150.73370207 141.39621269 150.27124023 143.39282227 C149.98966064 144.60252686 149.70808105 145.81223145 149.41796875 147.05859375 C149.16813232 148.13423584 148.9182959 149.20987793 148.66088867 150.31811523 C148 153 148 153 147 156 C146.32423827 163.73387163 146.32423827 163.73387163 148.5 171 C151.01159222 173.18154955 151.01159222 173.18154955 154.5 174.5625 C158.87520425 176.56848987 161.98810115 179.53231786 165.375 182.875 C165.89900391 183.3810376 166.42300781 183.8870752 166.96289062 184.40844727 C170.24351691 187.73986551 171.74140908 190.53772311 173 195 C174.77275482 197.17471589 174.77275482 197.17471589 177.01422119 197.28018188 C183.49147032 197.26883128 189.2431995 196.26179972 195.484375 194.5859375 C196.94970673 194.20775375 196.94970673 194.20775375 198.44464111 193.82192993 C201.5494914 193.01755801 204.64964195 192.19649553 207.75 191.375 C209.78227174 190.84657691 211.81482244 190.31922542 213.84765625 189.79296875 C222.78059265 187.47144812 231.6957023 185.09173195 240.59194946 182.63339233 C251.13127264 179.72363099 261.70276913 177.12213295 272.375 174.75 C274.64167509 174.2414324 276.9080248 173.73144411 279.17422485 173.22076416 C281.19162055 172.76684657 283.20979522 172.31639494 285.22802734 171.86621094 C289.16674349 170.96170836 293.08253508 169.99199708 297 169 C292.69356947 175.33298608 287.60422197 180.51668313 282.16748047 185.86376953 C279.16223717 188.8246199 276.22108638 191.7708847 273.5 195 C270.2160034 198.88717965 266.61365037 202.42329041 263 206 C258.82796395 210.13370601 254.75976533 214.27051807 250.9609375 218.75390625 C247.49976951 222.7183915 243.86329551 226.52230696 240.26269531 230.35986328 C236.87890372 233.97170476 233.53623224 237.61110318 230.25 241.3125 C226.32908416 245.71247511 222.18707769 249.85457855 217.96875 253.96875 C215.31252054 256.7093042 215.01891684 257.48924523 214.875 261.375 C214.97173182 264.18022266 215.15531269 266.36035216 216 269 C218.31 269.33 220.62 269.66 223 270 C228.87619955 285.43857593 228.87619955 285.43857593 229 292 C228.34 292.99 227.68 293.98 227 295 C226.78723729 297.35001564 226.78723729 297.35001564 227.0625 299.875 C227.11535156 300.71804688 227.16820312 301.56109375 227.22265625 302.4296875 C228.36981924 306.22281941 229.83864312 307.57120041 233 310 C236.70246239 311.60059305 240.50903149 312.73662187 244.375 313.875 C245.48842773 314.21668213 246.60185547 314.55836426 247.74902344 314.91040039 C251.16185388 315.95460659 254.58042496 316.97813285 258 318 C259.91456636 318.58298324 261.8286594 319.16752408 263.7421875 319.75390625 C267.48547105 320.90014791 271.23202445 322.03482273 274.98046875 323.1640625 C279.18240321 324.43594694 283.36923641 325.74857729 287.55078125 327.0859375 C307.52096 333.44450327 327.70096896 338.80372301 348 344 C345.10371878 345.93085415 343.1173997 346.6676528 339.80786133 347.5847168 C338.74436966 347.88230392 337.68087799 348.17989105 336.5851593 348.48649597 C335.42912704 348.80419449 334.27309479 349.12189301 333.08203125 349.44921875 C331.27601692 349.95277641 331.27601692 349.95277641 329.43351746 350.46650696 C326.21333921 351.36357209 322.99198542 352.2561373 319.76989746 353.14630127 C314.08032532 354.71940499 308.39393338 356.30399691 302.70703125 357.88671875 C301.46566406 358.23159332 300.22429688 358.5764679 298.9453125 358.93179321 C289.95386099 361.4362537 280.99107788 364.02974971 272.03636169 366.66209412 C263.59727031 369.13602845 255.11679679 371.40675052 246.59765625 373.58984375 C237.44275544 375.96995716 237.44275544 375.96995716 229.625 381.125 C227.39882043 385.06362539 227.31740844 388.56315486 228 393 C228.3511084 393.61415771 228.7022168 394.22831543 229.06396484 394.86108398 C230.77269147 398.76566248 229.05862757 402.53463233 228 406.5 C227.80277344 407.35464844 227.60554687 408.20929688 227.40234375 409.08984375 C226.24720844 413.52362659 225.63122179 415.5022595 221.93359375 418.41796875 C220.96550781 418.94003906 219.99742187 419.46210937 219 420 C216.71200787 423.32127889 216.02425941 425.34499589 215.875 429.375 C218.80762148 438.82455811 229.05715608 446.14600418 236 453 C248.03911567 464.88505021 248.03911567 464.88505021 253.45703125 471.234375 C255.99278513 474.1360478 258.74517641 476.80837188 261.5 479.5 C265.66560615 483.61343232 269.66870065 487.77743575 273.4609375 492.2421875 C275.60655063 494.69276087 277.93125414 496.94138769 280.25390625 499.22265625 C282.67900761 501.69115987 284.90418755 504.31570617 287.15625 506.94140625 C289.79434457 509.88690591 292.6339975 512.60961432 295.49609375 515.3359375 C297 517 297 517 297 519 C297.66 519 298.32 519 299 519 C298.67 519.66 298.34 520.32 298 521 C296.94425781 520.69819824 295.88851562 520.39639648 294.80078125 520.08544922 C265.82764358 511.81326887 236.9024119 504.29169805 207.41479492 498.06982422 C206.52459152 497.88175201 205.63438812 497.69367981 204.71720886 497.49990845 C203.04418975 497.14701283 201.3708798 496.7954919 199.69721985 496.44564819 C195.98740854 495.66399936 192.30198057 494.83785016 188.62890625 493.89746094 C184.00440675 492.7537809 180.75813596 492.26403611 176.3125 494.125 C172.54839046 497.17698071 171.28322275 500.63538131 170.3125 505.3125 C168.45167012 510.54054585 165.06604676 514.26431954 161 518 C160.34 518 159.68 518 159 518 C159 518.66 159 519.32 159 520 C157.6696875 519.9071875 157.6696875 519.9071875 156.3125 519.8125 C152.59314716 520.02302941 150.95098026 520.7867648 148 523 C144.90178771 527.64731843 145.4862347 532.37041782 146.52206421 537.67205811 C147.2771798 540.72276857 148.10205995 543.7469945 148.94921875 546.7734375 C149.59859546 549.1837493 150.24474383 551.59493247 150.88818359 554.00683594 C151.05879838 554.64358812 151.22941317 555.28034031 151.4051981 555.93638802 C153.52060028 563.87388999 155.42428732 571.86211801 157.33203125 579.8515625 C157.51494595 580.6159539 157.69786064 581.38034531 157.88631821 582.16790009 C159.00875885 586.85863593 160.12736056 591.55027842 161.24462891 596.24224854 C162.01100252 599.45790413 162.77989144 602.67295605 163.54884815 605.88799477 C164.47754994 609.7714515 165.4048574 613.65524074 166.33203125 617.5390625 C166.50433573 618.26034962 166.67664021 618.98163673 166.85416603 619.72478104 C168.62410399 627.13814412 170.37572037 634.55311267 172 642 C165.7535492 636.80420058 160.09377489 631.15768936 154.40429688 625.36523438 C150.38630109 621.30344572 146.27949906 617.4516668 141.94897461 613.72631836 C138.64785222 610.80232532 135.58616359 607.64741139 132.5 604.5 C128.09342126 600.04572984 123.67816744 595.71107839 118.88671875 591.66796875 C115.58310274 588.74738068 112.54694706 585.55364779 109.44921875 582.41796875 C106.69390663 579.69781212 103.81949936 577.17129179 100.875 574.66015625 C98.9267151 572.93511233 97.12269507 571.11871431 95.3125 569.25 C91.28972463 565.22722463 88.3210447 562.87462169 82.5 562.5 C78.94021329 562.61709825 78.26343914 562.76290478 75.5 565.25 C74.675 566.1575 73.85 567.065 73 568 C63.45458294 573.44661128 55.17358642 574.22943337 44.48828125 572.99609375 C40.58216968 573.0004679 39.0236856 573.59194769 36 576 C29.01930572 587.1254815 26.54696129 601.55118296 23.07885742 614.10913086 C20.20002571 624.45092603 17.10373337 634.72392047 14 645 C9.48450483 659.95257818 5.10476153 674.92852138 1 690 C-1 689 -1 689 -1.65286255 687.31326294 C-1.84363373 686.57582855 -2.03440491 685.83839417 -2.23095703 685.07861328 C-2.45443817 684.23483124 -2.67791931 683.39104919 -2.90817261 682.521698 C-3.26686935 681.12263718 -3.26686935 681.12263718 -3.6328125 679.6953125 C-4.16848715 677.66930276 -4.7053264 675.64360067 -5.24316406 673.61816406 C-5.52792603 672.5390979 -5.81268799 671.46003174 -6.1060791 670.3482666 C-7.62110321 664.67359825 -9.21415946 659.02107088 -10.8046875 653.3671875 C-11.135755 652.18755432 -11.46682251 651.00792114 -11.80792236 649.7925415 C-12.48790202 647.37003997 -13.16830463 644.94765712 -13.84912109 642.52539062 C-14.86796093 638.90004715 -15.88524618 635.27427011 -16.90234375 631.6484375 C-18.24691113 626.85621581 -19.59767811 622.06579844 -20.95214844 617.27636719 C-22.18860238 612.90027397 -23.40962239 608.52054284 -24.61018944 604.13451195 C-25.14311209 602.19191709 -25.68070818 600.25068012 -26.22000122 598.30984497 C-26.89426304 595.88028574 -27.56047943 593.44847419 -28.21725464 591.01412964 C-30.08932309 584.31831822 -31.79252163 579.10056242 -36.875 574.1875 C-39.63272878 572.64641627 -41.85175108 572.19676556 -45 572 C-45.62648438 572.33902344 -46.25296875 572.67804687 -46.8984375 573.02734375 C-52.07922737 575.42514427 -59.25239452 572.0406029 -64.3125 570.1875 C-67.65864526 568.81272714 -68.99975667 568.00026766 -71.5 565.25 C-74.29738569 562.73235288 -75.17216009 562.53898549 -78.8125 562.3125 C-88.01593908 562.84268334 -93.50125498 570.36442656 -99.57421875 576.56640625 C-102.19533633 579.19596543 -104.9283465 581.61766448 -107.74609375 584.03125 C-111.25840577 587.09919672 -114.66108727 590.28435148 -118.07910156 593.45654297 C-121.37364804 596.51032681 -124.6994281 599.52143391 -128.0625 602.5 C-135.15767909 608.86717212 -142.1431325 615.53581013 -148.3125 622.8125 C-151.90767905 627.02476202 -155.79223954 630.94266389 -159.6875 634.875 C-160.34210205 635.54249268 -160.9967041 636.20998535 -161.67114258 636.89770508 C-162.61316528 637.84166138 -162.61316528 637.84166138 -163.57421875 638.8046875 C-164.13713623 639.37171387 -164.70005371 639.93874023 -165.2800293 640.52294922 C-167.08455672 642.07261436 -168.8364417 643.0304656 -171 644 C-169.02058047 633.57893836 -166.86188343 623.2348224 -164.3125 612.9375 C-162.31320698 604.84968807 -160.50270591 596.74159303 -158.82421875 588.58203125 C-158.63305984 587.65474716 -158.44190094 586.72746307 -158.24494934 585.77207947 C-157.29227531 581.13937624 -156.35059337 576.50475009 -155.4230957 571.86694336 C-153.38204691 561.80603759 -151.02051347 551.96634394 -147.90466309 542.17657471 C-145.83798027 535.4259824 -144.98517754 529.34294456 -147.0625 522.5 C-148.86259075 519.64248065 -148.86259075 519.64248065 -152.5625 519.125 C-154.37428139 519.05911704 -156.18702114 519 -158 519 C-158 518.34 -158 517.68 -158 517 C-158.5671875 516.77570312 -159.134375 516.55140625 -159.71875 516.3203125 C-165.70059571 512.85821687 -170.42773777 505.68327521 -173.3125 499.5 C-175.00941166 495.98047953 -175.75387176 494.93316467 -179 493 C-187.75982529 491.36884062 -196.61791603 494.37115173 -205 496.6875 C-206.92833536 497.20335418 -208.85667139 497.71920602 -210.78514099 498.23455811 C-212.79679521 498.77427364 -214.80686254 499.31958908 -216.81665039 499.86621094 C-232.91173991 504.23710525 -249.07572423 508.34427092 -265.24926758 512.41357422 C-267.82263696 513.0623948 -270.39529999 513.71346134 -272.96704102 514.36865234 C-276.71694444 515.32394401 -280.4696553 516.26788408 -284.22265625 517.2109375 C-285.37766129 517.50664642 -286.53266632 517.80235535 -287.72267151 518.10702515 C-288.78235641 518.37125275 -289.84204132 518.63548035 -290.93383789 518.90771484 C-292.33346519 519.26148697 -292.33346519 519.26148697 -293.7613678 519.62240601 C-296 520 -296 520 -298 519 C-297.35933594 518.3709375 -296.71867187 517.741875 -296.05859375 517.09375 C-294.76115234 515.80984375 -294.76115234 515.80984375 -293.4375 514.5 C-292.16712891 513.24703125 -292.16712891 513.24703125 -290.87109375 511.96875 C-288.05617479 509.11909121 -285.45013297 506.10487366 -282.82739258 503.07910156 C-279.84266096 499.68324659 -276.7316934 496.4089425 -273.625 493.125 C-266.84610212 485.92575708 -260.16809051 478.6579659 -253.6875 471.1875 C-246.91828774 463.42420762 -239.93183245 455.83375848 -232.5859375 448.61328125 C-222.69257141 439.18443173 -222.69257141 439.18443173 -217.75 427.125 C-218.02272256 423.71596801 -218.58341613 421.11648451 -220 418 C-220.6290625 417.77441406 -221.258125 417.54882812 -221.90625 417.31640625 C-225.24582941 415.216708 -225.72748897 411.79844303 -226.75 408.1875 C-226.97042969 407.47529297 -227.19085938 406.76308594 -227.41796875 406.02929688 C-228.53131363 402.29163908 -229.39023274 398.93984973 -229 395 C-228.67 394.67 -228.34 394.34 -228 394 C-227.57143696 389.54953769 -227.52482151 385.36613817 -229 381.125 C-234.77444801 374.98964899 -244.1951402 373.2678377 -252.015625 371.05859375 C-253.29817787 370.69081927 -254.58057893 370.32251502 -255.86283875 369.95372009 C-259.28304788 368.97284442 -262.70632311 368.00313306 -266.13059616 367.03655243 C-268.2526323 366.43675598 -270.3737639 365.83385781 -272.49465942 365.2300415 C-296.86800821 358.29523459 -321.34769554 351.87346253 -346 346 C-343.32962991 343.32962991 -340.36541443 342.73633149 -336.8293457 341.71264648 C-335.71854141 341.38276482 -335.71854141 341.38276482 -334.58529663 341.04621887 C-332.11724257 340.31498014 -329.64657078 339.59303061 -327.17578125 338.87109375 C-325.43670349 338.35797137 -323.69778916 337.84429484 -321.95903015 337.33009338 C-317.34806854 335.96821962 -312.73482155 334.6142478 -308.12109375 333.26177979 C-303.55258074 331.92099031 -298.98638118 330.57237304 -294.41992188 329.22460938 C-276.6705645 323.98980943 -258.91047502 318.79220888 -241.13264465 313.65489197 C-239.37738716 313.14714989 -239.37738716 313.14714989 -237.58666992 312.62915039 C-236.57295822 312.33649796 -235.55924652 312.04384552 -234.51481628 311.74232483 C-232.66585176 311.19654648 -230.82890389 310.60963463 -229 310 C-227.10710224 306.43430886 -226.75134446 303.43484816 -226.8125 299.4375 C-226.81894531 298.50808594 -226.82539063 297.57867187 -226.83203125 296.62109375 C-226.89486152 294.08870231 -226.89486152 294.08870231 -227.57324219 292.09790039 C-228.36361495 288.21250385 -226.65658788 284.67782656 -225.4375 281 C-225.19708984 280.19304687 -224.95667969 279.38609375 -224.70898438 278.5546875 C-222.9283037 273.11845331 -221.18060604 270.84258219 -216 268 C-214.42529731 264.85059462 -214.05144142 262.35405354 -215 259 C-217.65635034 255.3375493 -220.83288846 252.2205444 -224 249 C-225.40295555 247.42297404 -226.79885082 245.83963788 -228.1875 244.25 C-232.60676397 239.3258992 -237.28469584 234.68917441 -241.98266602 230.03442383 C-245.52694321 226.51035291 -248.93153221 222.93613584 -252.1640625 219.12109375 C-254.70714508 216.18302175 -257.35580309 213.34697646 -260 210.5 C-263.83523057 206.36414007 -267.6224241 202.200244 -271.3125 197.93359375 C-273.24307245 195.72147948 -275.21423889 193.5491109 -277.1875 191.375 C-280.97645399 187.17519558 -284.69038176 182.91618798 -288.375 178.625 C-289.14299927 177.73240479 -289.14299927 177.73240479 -289.92651367 176.82177734 C-290.41224854 176.25410645 -290.8979834 175.68643555 -291.3984375 175.1015625 C-292.04304932 174.34866943 -292.04304932 174.34866943 -292.70068359 173.58056641 C-294.19450971 171.76338672 -295.60029336 169.89029385 -297 168 C-296.20972412 168.19956299 -295.41944824 168.39912598 -294.60522461 168.60473633 C-285.86941494 170.79996662 -277.12347797 172.9518564 -268.37289619 175.08744431 C-262.82661447 176.4414071 -257.28109343 177.7984836 -251.73561478 179.1557312 C-250.28096584 179.51168889 -248.8262816 179.86750235 -247.37156296 180.22317505 C-210.10150379 189.33646967 -210.10150379 189.33646967 -192.31274414 194.61206055 C-185.94864898 196.44818214 -179.6594907 198.10216726 -173 197 C-170.65813922 195.09710113 -170.65813922 195.09710113 -170.7890625 191.83984375 C-169.71080213 186.59266581 -167.13544505 184.21098108 -163.375 180.5625 C-162.77042969 179.92634766 -162.16585937 179.29019531 -161.54296875 178.63476562 C-156.92855791 174.05479068 -156.92855791 174.05479068 -152.2265625 173.77734375 C-151.16179687 173.85082031 -150.09703125 173.92429687 -149 174 C-146.72580503 172.39320258 -146.08333014 171.3424777 -145.42236328 168.62597656 C-144.89245913 162.24205605 -145.25135464 156.92748726 -146.875 150.75 C-147.34844809 148.80618228 -147.82103374 146.86215438 -148.29296875 144.91796875 C-148.56286621 143.8304834 -148.83276367 142.74299805 -149.11083984 141.62255859 C-150.8708795 134.45191927 -152.52460315 127.25617593 -154.1875 120.0625 C-154.37437378 119.25571808 -154.56124756 118.44893616 -154.75378418 117.6177063 C-157.9279487 103.89503686 -160.97892681 90.1466486 -163.93887329 76.37619019 C-164.39557318 74.25373315 -164.85453061 72.1317606 -165.31576538 70.01028442 C-165.95970837 67.04346472 -166.59451774 64.07484283 -167.2265625 61.10546875 C-167.42189072 60.21151398 -167.61721893 59.3175592 -167.81846619 58.39651489 C-169.11458587 52.22917173 -169.11458587 52.22917173 -168 50 C-167.5153125 50.49628906 -167.030625 50.99257812 -166.53125 51.50390625 C-162.47144424 55.61836324 -158.31576931 59.51802288 -153.93359375 63.28515625 C-151.43568444 65.5004738 -149.11975011 67.8689817 -146.78125 70.25 C-144.91610326 72.08242487 -142.98072254 73.79353135 -141 75.5 C-135.92873519 79.88727919 -131.23679563 84.51182844 -126.88671875 89.6171875 C-122.6052755 94.53266703 -118.00592646 99.10360638 -113.375 103.6875 C-112.54226563 104.51572266 -111.70953125 105.34394531 -110.8515625 106.19726562 C-108.56947644 108.46663305 -106.28505224 110.73362002 -104 113 C-101.47319817 115.51256633 -98.96710008 118.03428789 -96.5 120.60546875 C-95.675 121.45753906 -94.85 122.30960937 -94 123.1875 C-93.175 124.04730469 -92.35 124.90710938 -91.5 125.79296875 C-87.90539624 128.96632988 -84.65995252 130.28752904 -79.875 130.25 C-75.93880452 130.32029973 -75.93880452 130.32029973 -73 128 C-72.7215625 127.35417969 -72.443125 126.70835937 -72.15625 126.04296875 C-69.66951597 121.64917855 -63.57232556 120.47244382 -59 119 C-53.88114861 117.96422069 -48.94642567 118.00135938 -43.75 118.1875 C-40.4523731 118.1875 -38.78553147 117.91659557 -35.625 116.6875 C-28.57688307 109.47157077 -27.10470617 96.54023775 -24.515625 86.94140625 C-24.09255809 85.38740324 -23.66902469 83.83352716 -23.24505615 82.2797699 C-22.13285883 78.19983528 -21.02589853 74.11850006 -19.92041016 70.03674316 C-17.95821456 62.79498377 -15.98740399 55.5555612 -14.015625 48.31640625 C-13.80334763 47.53673115 -13.59107025 46.75705605 -13.37236023 45.95375443 C-10.44593543 35.21187635 -7.47273885 24.48457315 -4.421875 13.77734375 C-4.08818909 12.60329483 -3.75450317 11.42924591 -3.41070557 10.21961975 C-3.10598328 9.15706467 -2.80126099 8.09450958 -2.48730469 6.99975586 C-2.2226239 6.07625839 -1.95794312 5.15276093 -1.6852417 4.20127869 C-1 2 -1 2 0 0 Z "
     fill="#FDD336"
     transform="translate(514,154)"
     id="path2" />
  <path
     id="path4"
     d="M 1.0292969 -192.11914 C -5.5366294 -192.36088 -8.6429813 -188.32114 -11.134766 -181.44727 L -12.128906 -177.80078 C -12.721429 -175.65935 -13.310664 -173.51755 -13.884766 -171.37109 C -14.30003 -169.81534 -14.717517 -168.26067 -15.140625 -166.70703 C -18.517109 -154.34484 -21.705589 -141.93374 -24.861328 -129.51367 C -29.934622 -109.53522 -35.094452 -89.627097 -41.419922 -70 L -42.320312 -67.210938 C -43.816438 -62.560693 -45.306644 -57.907713 -46.839844 -53.269531 C -47.420167 -51.516518 -47.995641 -49.762008 -48.566406 -48.005859 L -49.375 -45.515625 C -51.337296 -39.70673 -52.342634 -34.911145 -51.9375 -28.75 C -50.738282 -26.777346 -50.738279 -26.777343 -48.9375 -25.75 C -44.155507 -24.836401 -39.989629 -25.282387 -35.5625 -27.25 C -30.279393 -32.28153 -28.397043 -38.974562 -26.529297 -45.841797 L -25.722656 -48.910156 C -25.118265 -51.149936 -24.51363 -53.388879 -23.910156 -55.628906 C -22.94854 -59.243765 -21.987465 -62.858577 -21.015625 -66.470703 C -19.66578 -71.470803 -18.314947 -76.471047 -16.970703 -81.472656 C -14.121948 -92.077187 -11.248972 -102.67554 -8.3398438 -113.26367 C -7.4859566 -116.36645 -6.6342916 -119.46907 -5.7890625 -122.57422 C -5.2593823 -124.52047 -4.7259252 -126.46718 -4.1914062 -128.41211 L -3.4492188 -131.10938 C -2.3107233 -135.32314 -1.3887498 -139.07313 1.0625 -142.75 C 5.8757983 -126.5026 10.655561 -110.24669 15.296875 -93.949219 C 16.716347 -88.961874 18.140764 -83.975818 19.566406 -78.990234 C 20.772098 -74.775284 21.977483 -70.559966 23.171875 -66.341797 C 24.381063 -62.063754 25.593985 -57.786838 26.820312 -53.513672 C 27.284928 -51.898632 27.748432 -50.283614 28.210938 -48.667969 C 28.849845 -46.389488 29.488924 -44.111628 30.144531 -41.837891 L 30.748047 -39.753906 C 32.438486 -33.812206 34.458814 -29.847413 39.3125 -25.9375 C 43.246152 -24.238878 45.78359 -24.266897 50.0625 -24.75 C 52.214354 -26.882381 52.990587 -28.208087 53.390625 -31.222656 L 53.3125 -33.8125 C 53.282768 -35.460172 53.205024 -37.108235 53.0625 -38.75 C 43.033414 -70.750844 43.034311 -70.751397 33.943359 -103.03711 L 33.0625 -106.125 C 30.436625 -115.33962 27.81772 -124.55701 25.205078 -133.77539 C 23.823833 -138.64995 22.442006 -143.52309 21.056641 -148.39648 C 20.291246 -151.08784 19.527559 -153.77976 18.767578 -156.47266 C 17.438812 -161.18169 16.09244 -165.88599 14.705078 -170.57812 L 14.0625 -172.75 C 13.437366 -174.90282 12.807785 -177.05211 12.150391 -179.19531 L 11.535156 -181.17969 C 9.9849342 -186.28412 8.5773057 -188.80929 4.0625 -191.75 C 2.9749769 -191.96359 1.9672863 -192.08461 1.0292969 -192.11914 z M 189.50391 -137.21484 C 187.10435 -137.19177 184.86754 -136.63112 182.5 -135.1875 C 181.15396 -133.84146 179.78888 -132.5104 178.35547 -131.25781 C 174.13395 -127.64075 170.09832 -123.89952 166.16797 -119.96875 L 164.06445 -117.84961 C 162.49923 -116.28137 160.93405 -114.71308 159.36914 -113.14453 C 156.83114 -110.59375 154.29314 -108.04371 151.75195 -105.49609 C 145.35211 -99.084334 138.95644 -92.667649 132.5625 -86.25 C 127.07623 -80.743277 121.58851 -75.236522 116.09766 -69.734375 C 113.50497 -67.136887 110.91475 -64.539091 108.32617 -61.9375 C 100.05971 -53.629063 91.763305 -45.393152 83.138672 -37.455078 C 78.778018 -33.519757 74.943221 -29.91598 72.0625 -24.75 C 71.9375 -21.125004 71.937501 -21.124997 73.0625 -17.75 C 76.012617 -15.074312 78.07608 -13.917901 82 -13.25 C 88.643928 -14.334723 93.25299 -18.590428 97.974609 -23.091797 C 99.317011 -24.397952 100.66333 -25.700098 102.01367 -26.998047 L 104.02734 -28.925781 C 106.74753 -31.535694 109.52546 -34.048297 112.37891 -36.511719 C 114.28925 -38.135549 116.03539 -39.719994 117.70312 -41.59375 C 120.31525 -44.777174 122.91501 -47.5794 126.0625 -50.25 C 127.9476 -51.789501 129.7028 -53.336563 131.30078 -55.175781 C 135.09683 -59.717743 139.12581 -63.943659 143.30859 -68.132812 L 145.9375 -70.75 C 150.58395 -75.417344 155.20409 -80.073817 160.19531 -84.375 C 163.83975 -87.496943 167.22422 -90.831206 170.59375 -94.246094 L 172.0625 -95.75 C 168.63591 -82.209668 165.12702 -68.683425 162.06641 -55.054688 C 160.31805 -47.184821 158.4883 -39.343488 156.52734 -31.523438 L 155.625 -27.9375 C 154.14916 -22.042224 152.67924 -16.145079 151.16406 -10.259766 C 150.58192 -7.9991497 150.00578 -5.7382579 149.43555 -3.4746094 L 148.625 -0.25 C 147.86915 2.6193903 147.15264 5.4838296 146.51953 8.3828125 C 145.56322 14.377883 144.3997 21.767651 148.0625 27 C 152.14958 30.065308 154.05369 29.906894 159.0625 29.25 C 162.91159 25.400912 164.37881 20.657086 165.64453 15.449219 C 166.02896 13.803687 166.42069 12.161913 166.81836 10.519531 L 167.51172 7.6640625 C 168.94556 1.7083909 170.42661 -4.2357616 171.91602 -10.177734 C 172.85247 -13.911209 173.78827 -17.644913 174.72266 -21.378906 L 175.33594 -23.832031 C 176.80028 -29.685276 178.25845 -35.540287 179.71094 -41.396484 C 180.90192 -46.199786 182.09526 -51.002086 183.28906 -55.804688 C 183.90115 -58.265533 184.51297 -60.726639 185.125 -63.1875 C 188.03017 -74.889918 190.85945 -86.617109 194.12109 -98.226562 L 194.73828 -100.39844 C 195.46319 -102.95566 196.19744 -105.50957 196.9375 -108.0625 C 199.27875 -115.74743 200.82878 -122.66079 200.0625 -130.75 C 198.55382 -133.76736 196.9328 -134.95607 194.0625 -136.75 C 192.44167 -137.0495 190.94364 -137.22869 189.50391 -137.21484 z M -186.9375 -137.17773 C -190.59025 -137.13394 -193.28986 -135.60864 -195.81836 -131.98633 C -198.04799 -127.53095 -198.04872 -127.53166 -193.81836 -110.69336 C -187.57342 -84.76781 -187.57268 -84.767025 -182.05078 -58.675781 C -180.70526 -52.313953 -179.33105 -45.959583 -177.91406 -39.613281 C -176.91651 -35.153482 -175.92195 -30.693133 -174.95508 -26.226562 C -174.30181 -23.201104 -173.64587 -20.176443 -172.98633 -17.152344 C -172.65688 -15.643377 -172.32811 -14.134259 -172 -12.625 C -170.23362 -4.3712583 -168.44176 3.8533516 -166.03711 11.949219 L -165.39453 14.058594 C -164.66254 16.516617 -163.85554 18.845583 -162.9375 21.25 C -159.97819 26.056271 -157.65118 28.66909 -152.25 30.5 C -148.9375 30.25 -148.9375 30.249999 -146.5625 29 C -143.51187 23.837391 -143.40643 18.150804 -144.47266 12.320312 L -145.23047 9.2695312 L -146.06641 5.8203125 C -146.63697 3.4819612 -147.19131 1.1411602 -147.72852 -1.2050781 L -148.51562 -4.7109375 C -149.22442 -7.8516749 -149.93319 -10.991769 -150.64062 -14.132812 C -150.95161 -15.513615 -151.26119 -16.894609 -151.57227 -18.275391 L -152.04688 -20.378906 C -152.96923 -24.472426 -153.89374 -28.565904 -154.83008 -32.65625 C -159.48534 -52.967049 -163.80878 -73.326396 -167.9375 -93.75 C -164.67349 -90.729111 -161.41248 -87.705051 -158.15625 -84.675781 C -156.75024 -83.366932 -155.34398 -82.058345 -153.9375 -80.75 C -151.69437 -78.670266 -149.45222 -76.589831 -147.21484 -74.503906 L -145 -72.4375 C -141.67129 -69.357854 -138.33111 -66.309342 -135.30664 -62.925781 C -130.74743 -57.599215 -125.93304 -52.577652 -120.98633 -47.613281 C -119.35687 -45.984071 -117.72965 -44.353193 -116.10938 -42.714844 C -115.0351 -41.628179 -113.95789 -40.544886 -112.87891 -39.462891 L -111.33203 -37.914062 C -108.90269 -35.448533 -106.63789 -33.1473 -103.59961 -31.427734 L -101.9375 -30.75 C -101.9375 -28.482498 -101.9375 -28.482491 -97.964844 -24.455078 L -96.3125 -22.8125 C -92.493158 -18.875277 -89.128715 -15.827904 -83.9375 -13.75 C -80.266311 -13.083699 -76.959041 -13.304713 -73.5 -14.8125 C -70.997858 -17.915156 -70.810499 -19.749483 -70.9375 -23.75 C -73.060081 -28.697544 -75.629593 -32.635451 -79.738281 -36.136719 C -83.293768 -38.973585 -86.400208 -42.175462 -89.5625 -45.4375 L -91.257812 -47.197266 L -92.914062 -48.886719 C -94.609062 -50.640506 -95.966115 -51.765881 -98.126953 -52.929688 L -99.9375 -53.75 L -99.9375 -55.75 L -102.86328 -58.308594 C -106.66103 -61.460017 -110.15497 -64.841011 -113.65039 -68.322266 L -116.125 -70.804688 C -117.89356 -72.571281 -119.66178 -74.338223 -121.42969 -76.105469 C -124.1857 -78.867866 -126.94124 -81.630193 -129.70312 -84.386719 C -131.51626 -86.195657 -133.32992 -88.005029 -135.14062 -89.816406 L -137.75 -92.429688 C -142.21949 -96.888107 -146.63947 -101.33961 -150.76953 -106.11719 C -152.95941 -108.71283 -155.23265 -110.97669 -157.8125 -113.1875 C -159.95313 -115.00416 -162.02077 -116.83187 -164.02344 -118.80078 C -165.49259 -120.2938 -166.96809 -121.78059 -168.44922 -123.26172 L -170.9375 -125.75 C -172.4313 -127.28027 -173.92763 -128.80203 -175.45312 -130.30078 L -177 -131.8125 C -178.9424 -133.83478 -180.55521 -135.13872 -182.9375 -136.75 C -184.39557 -137.04158 -185.71992 -137.19233 -186.9375 -137.17773 z M 325.62109 -4.7871094 C 322.44145 -4.6195624 319.21442 -3.7921628 316.17188 -2.953125 L 312.95312 -2 L 309.27734 -0.91992188 C 288.31709 5.265602 267.29247 11.462604 245.99805 16.400391 C 234.27986 19.102442 222.70511 22.225387 211.13867 25.509766 L 208.3125 26.3125 C 196.7895 29.560314 177.9616 31.748719 171.0625 42.25 C 170.52031 46.113084 170.51191 48.27396 172.4375 51.6875 C 177.19406 54.518788 182.29273 53.832461 187.58203 52.720703 L 190.26562 52.023438 L 193.44922 51.201172 C 195.3258 50.706793 197.20292 50.212911 199.08008 49.720703 C 202.85698 48.73048 206.63175 47.73568 210.40625 46.736328 C 238.86883 39.199325 267.44851 32.185743 296.0625 25.25 C 293.43316 28.369237 290.81546 31.474517 287.97266 34.402344 C 285.39115 36.896527 282.82596 39.382774 280.45312 42.078125 C 277.2439 45.85929 273.91273 49.442771 270.39453 52.935547 C 266.03458 57.246267 261.70739 61.546622 257.625 66.125 C 254.40669 69.76568 251.12695 73.339318 247.80469 76.884766 C 244.1677 80.760349 240.50469 84.608792 236.99609 88.601562 C 234.11912 91.970743 231.1674 95.186528 228.01953 98.308594 C 226.58538 99.727365 225.15695 101.15164 223.73047 102.57812 L 221.0625 105.25 C 218.50127 107.78026 215.99848 110.20131 214.0625 113.25 C 213.49114 117.67806 213.66354 120.22929 216.1875 123.875 C 218.0625 125.25 218.0625 125.25 221.25 125.6875 C 229.5452 124.73559 234.5045 120.26782 240.17773 114.53516 L 242.625 112 C 247.12073 107.4507 251.56025 102.88499 255.74609 98.046875 C 258.36414 95.010778 261.08657 92.143491 263.94336 89.332031 C 268.01245 85.356241 272.05304 81.391719 275.75 77.0625 C 277.51306 74.989825 279.29979 73.009255 281.21094 71.070312 C 290.34429 62.055195 290.34431 62.055166 309 41.8125 C 311.63287 38.951789 314.271 36.09458 316.92969 33.257812 L 318.89844 31.164062 C 320.22356 29.754836 321.54908 28.345974 322.875 26.9375 C 324.6823 25.025217 326.48648 23.111293 328.27734 21.183594 L 330.0625 19.25 L 332.02344 17.152344 L 333.93359 15.058594 C 337.00641 11.720996 338.24088 8.9247417 338.38281 4.3671875 C 337.94863 1.497335 336.83415 -0.59793019 334.78906 -2.6601562 C 331.93397 -4.4623504 328.80073 -4.9546563 325.62109 -4.7871094 z M -327.16992 -4.7304688 C -329.79399 -4.6429511 -332.17809 -3.9707382 -334 -2.3125 C -336.4749 0.15091414 -337.41156 1.8771264 -337.5625 5.375 C -336.76952 10.291461 -336.77025 10.290741 -329.76367 17.816406 C -325.8709 21.974606 -321.98688 26.137892 -318.25 30.4375 C -314.51213 34.754606 -314.51212 34.75462 -305.9375 44.25 L -303.60938 46.828125 L -301.3125 49.375 C -299.27632 51.631595 -297.24691 53.887563 -295.27344 56.199219 C -290.33824 61.997464 -290.33774 61.997725 -278.44141 73.763672 C -275.60833 76.56319 -272.76686 79.338407 -270.08594 82.285156 C -266.23969 86.682078 -262.33266 91.016155 -258.375 95.3125 C -255.91077 97.98647 -253.44987 100.65954 -251.06641 103.40625 C -244.08461 111.5768 -236.81399 120.10806 -227.29688 125.35156 C -223.30862 126.87027 -221.00129 126.5333 -216.9375 125.25 C -214.9375 123.625 -214.9375 123.625 -213.9375 121.25 C -213.44177 117.35496 -213.35733 115.15506 -215.5 111.8125 L -217.9375 109.25 C -221.7514 104.68674 -225.7564 100.39124 -229.97266 96.199219 C -234.62326 91.5918 -239.25671 87.004886 -243.625 82.125 C -246.42733 78.952158 -249.25167 75.805226 -252.11914 72.691406 C -255.62056 68.892183 -259.11045 65.08748 -262.5 61.1875 C -265.2655 57.997557 -268.09226 54.869067 -270.9375 51.75 C -273.20153 49.268728 -275.46494 46.790527 -277.67578 44.261719 C -282.65833 38.487896 -282.65835 38.487879 -293.33984 27.03125 L -295.9375 24.25 C -292.29903 25.161512 -288.65996 26.070928 -285.01953 26.974609 C -277.45141 28.850743 -269.88468 30.729902 -262.31836 32.613281 C -260.15658 33.151452 -257.99399 33.689125 -255.83203 34.226562 C -241.84286 37.703782 -227.84572 41.150051 -213.93555 44.933594 L -210.94141 45.753906 C -206.47721 46.974613 -202.01377 48.193779 -197.5625 49.460938 C -190.01658 51.613167 -182.73817 53.763371 -174.81641 53.701172 C -172.41045 53.123293 -171.45899 52.169948 -169.9375 50.25 C -169.37269 46.854442 -169.37975 43.365496 -170.9375 40.25 C -178.13258 33.7671 -187.89872 31.322568 -197.13281 29.035156 C -209.14168 26.136767 -221.02566 22.841092 -232.9082 19.46875 C -252.65768 13.861667 -272.44922 8.4591597 -292.33984 3.3730469 L -296 2.4375 C -299.51058 1.5342645 -303.0217 0.63221452 -306.53516 -0.25976562 L -309.78516 -1.0820312 C -314.46117 -2.284557 -321.39697 -4.9230076 -327.16992 -4.7304688 z M 2.6367188 -0.001953125 L 0 0 C -47.704277 0.033260687 -89.633915 15.052883 -127.02539 44.728516 L -128.9375 46.25 C -134.82725 50.887265 -140.55529 55.578246 -145.78125 60.964844 L -147.9375 63.25 C -154.43641 70.105043 -160.8402 77.021237 -166.73438 84.410156 L -168.9375 87.25 C -186.90214 110.23417 -197.93662 137.2302 -202.98047 165.86719 C -211.13241 218.17435 -201.02464 272.14737 -170.16992 315.5293 L -168.9375 317.25 C -162.83572 325.88246 -156.09419 333.49881 -148.49219 340.84766 C -146.77066 342.49439 -145.04859 344.14059 -143.34766 345.80859 C -111.52532 377.05142 -69.794903 397.87142 -25.6875 404 C 24.922382 410.43739 82.279379 397.01586 123.09766 365.61719 C 124.62214 364.40001 126.14995 363.18429 127.71484 362.01953 C 142.05691 351.486 154.75935 338.78904 165.81055 324.84766 L 167.0625 323.25 C 182.82861 303.23801 195.82858 277.57957 200.64648 252.49219 L 201.0625 250.25 C 203.59663 237.05546 205.72848 223.97046 206.01562 210.51953 L 206.0625 208.25 C 206.78529 185.84796 204.29285 164.41623 197.87305 142.90234 L 197.0625 140.25 C 193.75576 129.3532 189.25139 119.18165 184.0957 109.03516 L 183.1875 107.25 C 179.21698 99.361091 174.95668 92.440415 169.19531 85.724609 C 167.69706 83.986989 166.23809 82.214534 164.80859 80.419922 C 155.21558 68.18695 143.81061 57.745393 131.91797 47.792969 L 130.0625 46.25 C 104.82062 25.180276 74.680079 10.57637 42.462891 3.7539062 L 40.0625 3.25 C 27.613509 0.42926511 15.35605 0.013714139 2.6367188 -0.001953125 z M -1.6015625 20.072266 C 27.712227 19.807323 57.166069 26.466562 83.916016 40.136719 L 86.0625 41.25 C 103.27275 50.155483 120.29964 61.873553 133.78516 75.855469 C 135.03948 77.174342 136.29839 78.489023 137.57422 79.787109 C 156.63386 99.169512 170.21028 121.28205 178.56641 147.24609 C 191.76626 190.41549 190.95762 238.65794 170.03516 279.38672 L 169.0625 281.25 C 163.8445 291.26439 158.06341 300.68395 151.24609 309.69141 L 150.0625 311.25 C 121.14848 350.04674 78.367739 374.60218 30.925781 382.66016 L 27.0625 383.25 C 14.627854 385.22606 2.3153055 385.6341 -10.269531 385.35742 C -54.601371 383.56792 -101.28969 361.57655 -131.85547 329.51953 C -133.38205 327.89666 -134.90931 326.27883 -136.4668 324.68555 C -154.92933 305.8911 -168.00829 283.33519 -176.25586 258.34766 L -176.9375 256.25 C -178.06571 252.82399 -179.11345 249.41909 -180.02734 245.92969 L -180.9375 242.25 C -184.64105 229.05632 -185.28736 216.15616 -185.3125 202.52148 L -185.3125 199.6875 C -185.3324 189.61734 -185.43239 179.66789 -183.47656 169.74805 L -182.9375 167.25 C -178.47382 143.61223 -169.46127 121.84252 -155.23828 102.28906 L -152.9375 99.25 C -143.25529 86.198273 -132.50163 75.04367 -119.96094 64.710938 L -116.9375 62.25 C -114.71321 60.43144 -112.48048 58.642507 -110.19141 56.90625 L -107.9375 55.25 C -76.749579 32.200256 -39.29072 20.412907 -1.6015625 20.072266 z M 234.65039 146.0957 C 230.87471 145.98463 227.64969 147.00005 226.0625 150.25 C 225.86412 154.52223 226.18386 158.4307 228.05859 162.3125 C 232.27914 166.39318 232.27983 166.39313 255.14844 173.2793 C 258.68353 174.34318 262.21419 175.41776 265.74609 176.49219 L 268.37891 177.29297 C 274.53342 179.1611 280.66759 181.07144 286.77734 183.08203 C 298.36208 186.89587 310.11846 190.04276 321.9082 193.15234 L 324.32422 193.78711 C 325.86958 194.19662 327.41548 194.60646 328.96094 195.01562 C 334.48103 196.44681 339.74532 198.1796 345.0625 200.25 C 340.23473 201.63491 335.40251 202.99996 330.56641 204.35547 L 327.70703 205.15625 C 325.63616 205.73636 323.56503 206.31644 321.49414 206.89648 C 318.1617 207.82956 314.83029 208.76348 311.49805 209.69727 C 300.14454 212.87891 288.78983 216.0578 277.42188 219.1875 C 270.80173 221.00933 264.18571 222.84316 257.57617 224.70312 C 255.73888 225.22025 253.90036 225.7349 252.0625 226.25 C 249.08386 227.06317 246.10657 227.875 243.13867 228.72656 L 240.6875 229.4375 C 237.87973 230.17726 235.73736 230.9847 233.0625 232.25 C 229.9177 235.01957 227.47992 237.71237 226.37109 241.79688 L 226.5 244 L 226.55859 246.23438 C 227.1891 248.7564 227.98134 249.71071 230.0625 251.25 C 237.35543 251.86805 237.35478 251.86796 253.56836 247.06836 C 255.49543 246.49504 257.42314 245.92425 259.35156 245.35547 C 262.50542 244.42607 265.6596 243.49514 268.8125 242.5625 C 281.75462 238.71342 294.70214 235.01515 307.8125 231.77734 C 319.92381 228.79653 331.98942 225.67017 344.03906 222.44922 C 347.71571 221.46339 351.39163 220.47821 355.07031 219.5 C 357.5419 218.84299 360.0138 218.18422 362.48438 217.52344 L 366.01562 216.57812 C 370.04398 215.5096 374.06546 214.4309 378.0625 213.25 C 383.29438 211.53872 387.33572 210.36271 390.0625 205.25 C 390.69687 201.58959 390.63201 198.38902 388.9375 195 C 384.45122 190.8128 380.20914 188.75651 374.35742 187.15625 C 372.5662 186.68823 370.77791 186.20929 368.99219 185.7207 L 366.08789 184.91992 C 361.06914 183.54391 356.08364 182.07636 351.10547 180.56055 L 348.01172 179.61328 C 345.85756 178.9558 343.70294 178.29825 341.54883 177.64062 C 329.75316 174.03358 317.94982 170.45627 306.14453 166.88086 L 304.0625 166.25 C 295.30108 163.59653 286.53871 160.94803 277.76953 158.32031 C 274.20285 157.25271 270.63424 156.18809 267.07031 155.11133 C 263.67285 154.08282 260.27653 153.05598 256.875 152.04102 L 253.07031 150.90625 C 248.76413 149.59485 240.9432 146.28083 234.65039 146.0957 z M -230.53125 147.14844 C -233.06741 147.12805 -235.4715 147.35526 -238.08984 147.87305 L -241.30469 148.75391 L -244.99609 149.75195 L -248.8125 150.8125 C -252.63702 151.85046 -256.45939 152.8913 -260.27734 153.95312 C -262.73943 154.63895 -265.20215 155.32254 -267.66602 156.00195 C -284.00058 160.50476 -300.2323 165.30347 -316.4375 170.25 C -330.79629 174.63292 -345.1652 178.93757 -359.63281 182.94922 C -368.49597 185.40095 -380.26748 186.80532 -386.875 193.625 C -389.30759 197.11756 -389.58807 200.02128 -388.9375 204.25 C -386.17356 208.39591 -383.5669 210.71766 -378.78906 212.28125 C -376.87027 212.70015 -374.9511 213.12024 -373.03711 213.56055 L -370.80859 214.08398 C -366.37462 215.12065 -361.99273 216.31106 -357.60938 217.54297 L -354.63281 218.38672 C -352.5806 218.9654 -350.52868 219.54402 -348.47656 220.12305 C -332.01216 224.78115 -315.54626 229.42004 -298.99414 233.75781 C -289.0748 236.35311 -279.17922 238.982 -269.35547 241.92188 C -264.30483 243.44112 -259.25373 244.95676 -254.19336 246.44336 L -250.375 247.5625 C -244.40745 249.35948 -238.50018 251.44008 -232.22266 251.60547 C -228.9375 251.25 -228.9375 251.25 -226.9375 249.25 C -226.32973 244.79042 -226.41921 240.57453 -228.0625 236.375 C -232.88621 230.90813 -238.51007 229.23932 -245.35156 227.23242 C -247.25244 226.69302 -249.15463 226.15263 -251.05273 225.60352 C -253.77772 224.81179 -256.50198 224.02373 -259.23047 223.24414 C -262.71071 222.25286 -266.19087 221.25708 -269.66602 220.24805 C -283.99836 216.08441 -298.34367 212.06554 -312.83594 208.48828 C -323.26152 205.93116 -333.61962 203.21161 -343.9375 200.25 C -336.09491 197.92281 -328.25185 195.59708 -320.4082 193.27344 C -316.35654 192.0733 -312.30504 190.87381 -308.25391 189.67188 C -304.36079 188.51642 -300.46799 187.36028 -296.57422 186.20703 L -291.88672 184.82031 C -283.11703 182.22133 -274.34481 179.63578 -265.54102 177.1543 L -263.08789 176.46484 C -259.1991 175.36771 -255.31235 174.26663 -251.41797 173.18945 C -243.7671 171.07453 -235.89568 169.19057 -228.9375 165.25 C -225.82272 162.13522 -225.82272 162.13521 -225.625 154.5625 C -225.63956 150.97703 -225.35535 149.83215 -227.9375 147.25 C -228.82495 147.18978 -229.68586 147.15523 -230.53125 147.14844 z M 223.90234 272.30859 C 221.0625 272.25 221.0625 272.25 218.25 274.6875 C 215.52486 278.45875 215.13689 281.63786 215.0625 286.25 C 216.22588 289.55606 218.30496 291.70987 220.76953 294.15625 L 222.26172 295.60938 C 223.86621 297.19761 225.47062 298.78597 227.08203 300.36719 C 229.26424 302.50562 231.44296 304.64642 233.61719 306.79297 L 235.19922 308.35938 C 238.55645 311.68045 241.83742 315.03383 244.92578 318.60938 C 247.47679 321.60399 250.142 324.41107 252.94531 327.16992 C 257.0777 331.20751 261.16811 335.24159 264.9375 339.625 C 267.05281 342.11544 269.23127 344.45985 271.5625 346.75 C 273.36302 348.51844 275.10246 350.29506 276.77734 352.18359 C 279.76934 355.66408 282.79048 359.02842 286.0625 362.25 C 289.94516 366.07199 293.53269 370.10247 297.0625 374.25 C 293.01582 373.80854 293.0165 373.80896 289.09766 372.59961 C 287.3881 372.10391 285.67612 371.61079 283.96484 371.12109 L 281.22266 370.33789 C 263.44941 365.25827 245.72341 360.61044 227.625 356.84766 C 223.03103 355.89398 218.45491 354.89179 213.89062 353.80664 L 211.8125 353.30859 C 209.12429 352.66698 206.43644 352.02397 203.75 351.375 C 195.73945 349.40646 187.38617 346.93934 179.0625 347.25 C 175.22201 348.75853 173.30487 350.77046 171.0625 354.25 C 170.15276 357.707 169.53847 360.01117 170.95312 363.35547 C 173.55661 365.69378 173.55564 365.69379 179.87109 366.61523 C 189.66222 367.92426 199.27213 369.85391 208.85156 372.25391 L 210.8125 372.75 C 233.80878 378.78373 233.80963 378.78403 256.69727 385.2207 C 267.99222 388.39245 279.28618 391.56532 290.59766 394.67773 C 292.73202 395.26366 294.86614 395.84975 297 396.4375 C 303.57025 398.2742 310.13453 400.12364 316.76367 401.73828 C 322.949 403.11307 329.42945 404.78771 335.0625 401.25 C 336.9484 398.95998 337.96171 397.18774 338.28125 394.21484 C 338.33592 390.44974 338.37823 387.77411 335.86719 384.86523 L 334.36719 383.27344 L 332.69531 381.48828 C 329.21897 377.80336 325.70872 374.14594 322.38672 370.32031 C 317.84947 365.03951 313.02591 360.13013 308.0625 355.25 C 303.64845 350.91001 299.28197 346.58002 295.21875 341.90625 C 293.59967 340.00249 291.97637 338.16232 290.22461 336.37891 C 287.8945 334.09532 285.57783 331.83388 283.41797 329.38672 C 280.89798 326.44181 278.369 323.56046 275.64453 320.80078 C 272.50886 317.70306 269.31512 314.66689 266.39453 311.36328 C 258.90916 302.49244 250.57325 294.05554 241.8125 286.4375 C 240.554 285.38509 239.30477 284.32152 238.0625 283.25 L 235.35156 280.65234 C 234.37952 279.72728 233.40817 278.8015 232.4375 277.875 C 229.56449 275.08624 227.75249 273.45555 223.90234 272.30859 z M -224.88086 272.36523 C -229.55251 272.47974 -233.434 275.40626 -236.75 279.47266 C -239.00643 282.33752 -241.4137 284.96304 -243.91016 287.61719 C -247.65562 291.58092 -251.4211 295.5263 -255.02344 299.62109 C -258.33506 303.5062 -261.80635 307.16199 -265.4375 310.75 C -268.61563 313.88577 -271.71498 317.04802 -274.625 320.4375 C -276.2775 322.37061 -277.93588 324.24835 -279.71875 326.0625 C -289.20381 335.39207 -298.10528 345.30408 -306.9375 355.25 C -311.80154 360.86907 -316.79932 366.318 -321.9375 371.6875 C -326.7331 376.67143 -331.28773 381.77108 -335.63867 387.14844 C -337.81225 390.66457 -337.50308 393.22026 -336.9375 397.25 C -335.42882 400.26736 -333.8078 401.45607 -330.9375 403.25 C -325.83094 403.89667 -320.8851 403.24288 -315.94336 401.92969 L -313.84766 401.33594 C -311.43014 400.68135 -309.01413 400.02418 -306.60156 399.35156 C -304.84108 398.8605 -303.07935 398.37275 -301.31641 397.89062 C -291.53263 395.22578 -281.76762 392.49364 -272.01562 389.71484 C -267.9588 388.55831 -263.9019 387.40381 -259.84375 386.25195 L -256.75 385.375 C -237.1326 379.79441 -217.40382 374.82894 -197.5332 370.23047 L -194.03711 369.42383 C -191.85188 368.91361 -189.66584 368.40416 -187.48047 367.89453 C -181.98537 366.65718 -176.44141 365.84977 -171.9375 362.25 C -171 359.3125 -171 359.3125 -170.9375 356.25 C -171.87017 352.8302 -174.22837 350.39979 -177 348.22461 C -183.18713 345.11272 -183.18788 345.11223 -199.37891 349.44531 C -201.53511 350.05119 -203.69388 350.648 -205.85547 351.23438 L -209.17188 352.13281 C -227.90685 357.26813 -246.74883 361.9871 -265.59766 366.68359 C -268.15669 367.32116 -270.71662 367.95906 -273.27539 368.59766 C -280.82912 370.48312 -288.38295 372.36781 -295.9375 374.25 C -294.95592 372.07542 -294.95592 372.07542 -292.92578 369.95703 L -290.25 367.0625 C -286.96084 363.49576 -283.65486 359.94506 -280.33984 356.40234 L -278.51367 354.45117 L -276.6875 352.5 C -273.15831 348.72975 -269.63339 344.96517 -266.25 341.0625 C -263.38066 337.72826 -260.41768 334.48497 -257.4375 331.25 C -254.92924 328.52923 -252.42473 325.80865 -249.99219 323.01953 C -246.92978 319.45147 -243.78341 316.05648 -240.4375 312.75 C -237.61005 309.96089 -234.90384 307.13467 -232.3125 304.125 C -230.63808 302.16376 -228.96867 300.2805 -227.125 298.47656 C -222.95841 294.50753 -219.3658 290.52752 -216.9375 285.25 C -216.17827 280.50483 -217.12289 277.15414 -219.9375 273.25 C -221.67864 272.60134 -223.32364 272.32707 -224.88086 272.36523 z M -153.71484 373.48242 C -157.82598 373.47053 -160.11294 375.79415 -162.12695 381.07812 L -162.82422 383.05859 C -166.17379 392.3054 -168.62725 401.77539 -171.00391 411.31055 C -171.51049 413.34702 -172.02025 415.38309 -172.5332 417.41797 C -176.21277 431.99522 -179.7198 446.60738 -183.02734 461.27344 C -184.96789 469.88822 -186.96972 478.4775 -189.1582 487.0332 L -189.9375 490.06641 C -191.19826 494.99717 -192.45321 499.92868 -193.75195 504.84961 C -196.08328 513.67843 -201.3225 526.48001 -196.9375 535.25 C -194.19489 537.99261 -192.46544 539.15039 -188.625 539.875 C -184.30653 539.14306 -182.28916 537.74902 -178.96484 535.01172 L -176.9375 533.25 C -171.43624 528.68229 -166.35871 523.76321 -161.33203 518.67969 C -159.8358 517.16149 -158.33538 515.64788 -156.82812 514.14062 C -155.23842 512.5521 -153.65072 510.9611 -152.06445 509.36914 C -148.08128 505.3686 -144.09635 501.36981 -140.10938 497.37305 C -138.30185 495.56144 -136.49455 493.74959 -134.6875 491.9375 C -120.96904 478.15212 -107.29958 464.27427 -92.640625 451.47656 C -85.181697 445.01964 -72.74375 435.88977 -70.410156 426.01953 C -70.27896 423.13846 -70.456851 420.9226 -72.160156 418.53906 C -73.937498 417.25 -73.937502 417.25 -76.347656 416.92188 L -79 417 C -82.818757 417.06729 -84.783379 417.27497 -87.75 419.78125 L -89.9375 421.75 L -92.390625 423.95312 L -94.9375 426.25 C -100.52387 431.24444 -106.06591 436.28214 -111.5625 441.375 C -114.36507 443.97518 -117.15926 446.57677 -120.05078 449.07812 C -123.90358 452.34517 -127.5472 455.77998 -131.13672 459.33203 L -133 461.1875 C -135.9376 464.10176 -138.85311 467.01779 -141.58789 470.125 C -145.60339 474.78997 -149.77371 479.24095 -154.11133 483.60938 L -156.625 486.125 L -159.17383 488.71094 L -161.63672 491.17969 C -164.26795 493.82572 -166.4982 495.76874 -169.9375 497.25 C -168.8175 492.67718 -167.7064 488.10284 -166.60547 483.52539 L -166 481 C -162.44903 466.20464 -159.27718 451.36062 -156.3125 436.4375 C -153.91266 424.33549 -151.40016 412.39643 -147.875 400.5625 C -146.25175 395.42047 -144.76227 390.72137 -144.69141 385.29297 C -144.78515 380.84329 -145.73481 377.45269 -148.9375 374.25 C -150.77051 373.75009 -152.34447 373.48639 -153.71484 373.48242 z M 155.5 374.3125 C 150.89386 374.19439 147.75465 377.83024 145.0625 381.25 C 144.28167 385.41182 144.73288 389.10007 145.89453 393.14844 C 147.12298 397.38234 148.1979 401.65032 149.27148 405.92578 L 150.12891 409.35938 C 154.1448 425.44594 158.00519 441.56993 161.85352 457.69727 C 162.82643 461.77491 163.80068 465.85247 164.77539 469.92969 C 166.87286 478.70291 168.96863 487.47592 171.0625 496.25 C 169.18066 494.34733 167.29661 492.44692 165.41016 490.54883 L 163.0625 488.1875 C 158.72705 483.80321 154.39072 479.4717 149.73633 475.42383 C 146.47545 472.64633 143.43898 469.70489 140.43164 466.65625 C 135.98633 462.12272 131.5833 457.56205 126.75 453.4375 C 123.68986 450.8553 120.87706 448.09863 118.0625 445.25 C 115.14624 442.29817 112.21644 439.44611 109.0625 436.75 C 106.82211 434.83934 104.70706 432.89399 102.625 430.80859 C 97.53152 425.59865 92.154158 418.42434 84.742188 416.71484 C 80.501205 416.44191 78.548205 416.91298 75 419.375 C 73.062502 422.25 73.0625 422.25 72.625 425.375 C 73.699654 432.43701 73.699668 432.43703 86.6875 443.4375 C 90.704702 446.82751 94.372709 450.51268 98.0625 454.25 C 100.91464 457.16389 103.73881 460.09481 106.8125 462.77734 C 111.53002 466.78911 115.95099 471.0333 120.32031 475.41992 C 122.13428 477.25111 123.95066 479.07993 125.76953 480.90625 C 128.20812 483.35423 130.64318 485.80425 133.07812 488.25586 C 136.02388 491.22222 138.96841 494.18976 141.91797 497.15234 C 143.33052 498.57034 144.74387 499.98808 146.15625 501.40625 C 150.80335 506.09747 155.42776 510.7664 160.41406 515.09961 C 162.48073 516.87434 164.47418 518.64724 166.43555 520.54102 L 168.35156 522.51172 C 169.79946 523.98444 171.24476 525.45973 172.6875 526.9375 C 177.69265 532.08959 182.73996 538.74147 190.25 539.625 C 193.81826 539.14923 195.48542 537.95532 197.75 535.1875 C 199.7296 530.75696 199.74037 526.07681 198.60742 521.35742 C 198.26158 520.02171 197.92669 518.68318 197.60352 517.3418 L 197.12695 515.33789 L 196.57812 513.03125 C 196.17561 511.33722 195.77207 509.64315 195.36914 507.94922 L 194.72461 505.23828 C 191.49513 491.65632 188.26831 478.07268 185 464.5 C 183.47701 458.1817 181.96745 451.86007 180.48047 445.5332 C 175.76265 425.44923 172.66252 403.59239 164.4375 384.625 C 162.19609 380.22784 160.35057 376.0871 155.5 374.3125 z M -44.058594 426.42969 C -46.633236 426.50028 -48.820704 427.56996 -50.9375 430.25 C -51.719077 433.99697 -51.283687 437.88512 -50.347656 441.57227 L -49.597656 443.94141 L -48.771484 446.5957 C -42.038347 469.06549 -42.03928 469.06624 -35.900391 491.70703 C -31.103471 509.39365 -26.201959 527.04407 -21.125 544.65234 C -20.072309 548.29859 -19.023403 551.94526 -17.992188 555.59766 C -15.107294 565.88809 -13.359329 583.04016 -3.9375 589.25 C -0.43823357 589.80961 2.8258109 589.86834 6.0625 588.25 C 9.6980693 584.58995 11.051497 580.90602 12.496094 576.08398 L 13.320312 573.19922 C 14.279527 569.9517 15.234024 566.70241 16.173828 563.44922 C 16.85341 561.09376 17.53673 558.73976 18.224609 556.38672 C 24.547264 534.80261 30.658126 513.15625 36.679688 491.48633 C 37.401434 488.88729 38.123711 486.28788 38.847656 483.68945 L 39.90625 479.89062 C 41.610582 473.76016 43.322186 467.63582 45.208984 461.55859 L 46.371094 457.90039 C 47.108827 455.57322 47.849582 453.247 48.59375 450.92188 C 50.167242 446.19295 51.816257 441.5772 52.34375 436.60156 C 52.428604 432.96498 52.649273 430.89356 50.125 428.125 C 45.977452 426.93999 42.187175 426.8997 38.0625 428.25 C 32.211056 432.92685 32.211045 432.92687 27.25 451.875 C 20.0101 478.01529 20.010085 478.01534 12 503.9375 C 8.0922624 516.78945 4.2724448 529.66415 0.546875 542.57031 L 0.0625 544.25 C -1.1922054 539.05825 -2.5903847 533.93476 -4.109375 528.81445 C -7.2104465 518.37941 -10.159807 507.90785 -13.025391 497.40625 C -13.433506 495.90989 -13.841319 494.41222 -14.25 492.91602 C -15.924604 486.78603 -17.599274 480.65621 -19.263672 474.52344 C -20.314584 470.64873 -21.366399 466.77475 -22.425781 462.90234 C -22.829838 461.42729 -23.233792 459.95193 -23.636719 458.47656 C -26.629504 447.38312 -28.218207 433.51452 -38.9375 427.25 C -40.829894 426.70412 -42.513808 426.38733 -44.058594 426.42969 z "
     transform="translate(513.9375,298.75)" />
</svg>
